<svg xmlns="http://www.w3.org/2000/svg" viewBox="0 0 1000 231.6"><defs><style>.cls-1{fill:#ff5b00;}.cls-2{fill:#231f20;}</style></defs><title>LOGOGEREINFO_PRETA copy</title><g id="Layer_5" data-name="Layer 5"><path class="cls-1" d="M165.84,115.76v0h-31V62a62,62,0,0,1,31,53.74Z"/><circle class="cls-1" cx="227.99" cy="38.39" r="15.44" transform="translate(153.58 257.28) rotate(-80.78)"/><path class="cls-2" d="M342.57,168.15H319.8V152.59h41.36v51.22a59.6,59.6,0,0,1-5.81,1.75q-3.53.91-7.89,1.64c-2.91.47-5.91.87-9,1.17s-6.15.46-9.19.46a70.37,70.37,0,0,1-23.86-3.68,46.19,46.19,0,0,1-17-10.36,42.51,42.51,0,0,1-10.17-15.91,58.82,58.82,0,0,1-3.38-20.37,62.13,62.13,0,0,1,1.78-15.06,52.62,52.62,0,0,1,5.24-13.28,50.85,50.85,0,0,1,8.39-11,49.82,49.82,0,0,1,11.27-8.43,56.6,56.6,0,0,1,13.88-5.35,67.68,67.68,0,0,1,16.21-1.86,93.05,93.05,0,0,1,14.57,1.1,63.3,63.3,0,0,1,11.31,2.7v15.78a83.94,83.94,0,0,0-12-2.89,76.19,76.19,0,0,0-12.18-1,47.66,47.66,0,0,0-15.48,2.47A35,35,0,0,0,305.42,129a34,34,0,0,0-8.31,11.88,40.86,40.86,0,0,0-3,16.32q.07,18,9.41,27t26.49,9a63,63,0,0,0,6.6-.35,56.14,56.14,0,0,0,6-.87Z"/><path class="cls-2" d="M402.52,191.37h49.93v15.56H383.92V105.39h65.8V121h-47.2V147.2H443v15.56H402.52Z"/><path class="cls-2" d="M547.32,135.89q0,10.63-5.89,18t-18.17,11v.3l30.2,41.74H531.15l-27.62-39.31H490.78v39.31h-18.6V105.39h30.89a109.49,109.49,0,0,1,14.27.87,53.4,53.4,0,0,1,11.31,2.62A29.5,29.5,0,0,1,542.46,119Q547.32,125.73,547.32,135.89ZM500,152.06a86.72,86.72,0,0,0,10.81-.57,33.73,33.73,0,0,0,7.48-1.71q5.61-2.11,7.78-5.8a16.41,16.41,0,0,0,2.16-8.46,15,15,0,0,0-1.71-7.25,11.65,11.65,0,0,0-5.8-5,24.47,24.47,0,0,0-6.68-1.78,71.07,71.07,0,0,0-9.94-.57H490.78v31.11Z"/><path class="cls-2" d="M588.37,191.37h49.94v15.56H569.78V105.39h65.79V121h-47.2V147.2H628.9v15.56H588.37Z"/><path class="cls-2" d="M658,206.93V105.39h18.6V206.93Z"/><path class="cls-2" d="M753.81,152.59q10.92,15.56,17.75,27.63H772q-.91-19.82-.91-28.84v-46H789.7V206.93H770.2l-33.09-46.75Q728.38,148,719.05,132h-.46q.92,18.67.91,28.92v46H700.91V105.39h19.51Z"/><path class="cls-2" d="M832.58,206.93H814V105.39h64.65V121H832.58V147.2H872v15.56H832.58Z"/><path class="cls-2" d="M989.37,156.16a65.66,65.66,0,0,1-3.3,21.29,47.17,47.17,0,0,1-9.64,16.66A43.41,43.41,0,0,1,960.87,205a58.83,58.83,0,0,1-42,0,43.37,43.37,0,0,1-15.55-10.85,47,47,0,0,1-9.64-16.66,70.33,70.33,0,0,1,0-42.58,47,47,0,0,1,9.64-16.66,43.37,43.37,0,0,1,15.55-10.85,58.83,58.83,0,0,1,42,0,43.41,43.41,0,0,1,15.56,10.85,47.17,47.17,0,0,1,9.64,16.66A65.66,65.66,0,0,1,989.37,156.16Zm-19.2,0a52,52,0,0,0-2.28-16.2,33.13,33.13,0,0,0-6.3-11.57,25.23,25.23,0,0,0-9.56-6.91,33.49,33.49,0,0,0-24.29,0,25.23,25.23,0,0,0-9.56,6.91,33.13,33.13,0,0,0-6.3,11.57,52.28,52.28,0,0,0-2.27,16.2,52.32,52.32,0,0,0,2.27,16.2,32.81,32.81,0,0,0,6.3,11.54,25.75,25.75,0,0,0,9.56,6.9,32.95,32.95,0,0,0,24.29,0,25.75,25.75,0,0,0,9.56-6.9,32.81,32.81,0,0,0,6.3-11.54A52,52,0,0,0,970.17,156.16Z"/><path class="cls-2" d="M134.86,115.81V22.71H105.23l-1.51,0a93.1,93.1,0,1,0,62.1,162.47v23.75h31.06v-93.1Zm-31.1,62a62.09,62.09,0,0,1,0-124.17h0v93.15h53.72A62.06,62.06,0,0,1,103.76,177.85Z"/><path class="cls-2" d="M243.28,69.44v31h0V208.86h-31V100.42H163.93a61.87,61.87,0,0,0-13.84-26v-5Z"/></g></svg>